<?xml version="1.0" standalone="no"?>
<!DOCTYPE svg PUBLIC "-//W3C//DTD SVG 20010904//EN"
 "http://www.w3.org/TR/2001/REC-SVG-20010904/DTD/svg10.dtd">
<svg version="1.0" xmlns="http://www.w3.org/2000/svg"
 width="3374.000000pt" height="3374.000000pt" viewBox="0 0 3374.000000 3374.000000"
 preserveAspectRatio="xMidYMid meet">
<metadata>
Created by potrace 1.14, written by Peter Selinger 2001-2017
</metadata>
<g transform="translate(0.000000,3374.000000) scale(0.100000,-0.100000)"
fill="#000000" stroke="none">
<path d="M7155 33725 c-7 -5 -84 -136 -173 -290 -88 -154 -208 -363 -267 -465
-59 -102 -116 -199 -125 -216 -10 -17 -71 -123 -136 -235 -64 -112 -132 -229
-149 -259 -105 -183 -788 -1364 -814 -1408 -17 -29 -31 -55 -31 -58 0 -2 -11
-21 -23 -42 -22 -34 -60 -99 -232 -397 -32 -55 -82 -143 -113 -195 -30 -52
-62 -108 -72 -125 -9 -16 -41 -72 -71 -123 -30 -52 -63 -110 -75 -130 -11 -20
-47 -82 -79 -137 -32 -55 -67 -116 -78 -135 -10 -19 -41 -72 -68 -118 -27 -45
-49 -85 -49 -88 0 -3 -8 -17 -19 -32 -10 -15 -65 -108 -121 -207 -57 -99 -136
-236 -175 -305 -197 -340 -375 -647 -497 -860 -75 -129 -144 -249 -154 -267
-11 -17 -37 -62 -58 -100 -22 -37 -106 -183 -187 -323 -360 -623 -594 -1028
-617 -1070 -14 -25 -35 -61 -47 -80 -12 -19 -34 -57 -50 -85 -39 -70 -93 -164
-114 -201 -10 -16 -123 -212 -251 -435 -204 -354 -298 -516 -330 -569 -10 -17
-119 -207 -164 -285 -15 -27 -75 -130 -132 -229 -57 -98 -104 -182 -104 -187
0 -5 -4 -9 -10 -9 -5 0 -10 -5 -10 -10 0 -6 -38 -76 -85 -156 -47 -81 -85
-149 -85 -152 0 -3 -6 -13 -14 -21 -7 -9 -27 -41 -43 -71 -17 -30 -59 -105
-95 -166 -35 -61 -68 -117 -71 -125 -4 -8 -17 -30 -28 -49 -12 -19 -82 -141
-157 -270 -74 -129 -154 -268 -178 -309 -24 -40 -44 -75 -44 -77 0 -2 19 -16
42 -30 l43 -27 650 1 c357 0 657 1 666 1 9 1 21 11 27 24 7 12 24 43 40 68 48
82 94 163 120 209 14 25 28 50 32 55 4 6 60 102 125 215 65 113 210 365 323
560 113 195 331 573 485 840 154 267 296 512 315 545 19 33 46 80 60 105 14
25 33 59 43 75 10 17 42 73 72 125 30 52 77 133 104 180 74 127 203 351 223
385 9 17 61 107 115 200 121 209 380 657 407 705 11 19 78 134 148 255 117
204 464 805 541 939 19 32 50 87 69 122 19 35 41 69 48 76 6 6 12 15 12 19 0
4 19 40 43 81 24 40 55 93 69 118 14 25 91 158 170 295 80 138 197 340 260
450 63 110 141 245 173 300 95 165 167 288 185 320 9 17 65 113 123 214 59
101 107 188 107 192 0 5 5 9 10 9 6 0 10 4 10 9 0 9 63 119 270 476 51 88 102
176 112 195 72 127 295 512 314 542 13 21 24 40 24 43 0 2 18 34 40 70 22 36
40 68 40 71 0 3 15 28 33 57 18 29 44 73 57 100 14 26 28 47 32 47 5 0 8 4 8
9 0 9 289 514 320 561 l16 23 9008 0 c5241 0 9011 -4 9016 -9 4 -5 21 -32 37
-61 15 -28 141 -246 278 -483 138 -238 260 -451 273 -474 13 -23 41 -70 62
-106 21 -36 47 -81 58 -100 10 -19 58 -102 106 -183 47 -82 86 -151 86 -153 0
-2 23 -41 50 -85 28 -44 50 -82 50 -84 0 -2 38 -68 84 -147 45 -79 94 -163
108 -188 14 -25 66 -115 115 -200 87 -150 637 -1102 674 -1167 11 -18 27 -48
38 -65 177 -307 258 -447 326 -563 44 -77 84 -147 88 -155 4 -8 17 -31 28 -50
12 -19 107 -183 212 -365 104 -181 228 -394 273 -473 46 -79 84 -145 84 -147
0 -3 16 -29 35 -59 19 -30 35 -58 35 -61 0 -3 11 -22 24 -43 13 -20 86 -145
161 -277 76 -132 162 -280 190 -330 60 -102 337 -582 367 -635 11 -19 37 -64
58 -100 21 -36 47 -81 57 -100 11 -19 111 -192 223 -385 111 -192 212 -366
222 -385 52 -91 77 -135 153 -265 45 -77 93 -160 107 -185 14 -25 83 -144 153
-265 70 -121 139 -240 153 -265 14 -25 89 -155 167 -290 78 -135 219 -378 312
-540 94 -162 180 -311 191 -330 12 -19 29 -50 38 -68 9 -18 21 -35 27 -39 6
-3 309 -6 674 -6 572 0 666 2 681 15 9 8 25 18 35 21 9 4 17 13 17 21 0 7 -32
69 -72 137 -156 271 -455 789 -538 934 -10 17 -58 100 -107 185 -154 264 -274
473 -301 520 -56 100 -135 236 -142 245 -4 6 -20 33 -35 60 -25 46 -148 259
-495 860 -70 121 -137 238 -149 259 -12 21 -62 107 -110 190 -86 148 -449 777
-488 846 -11 19 -34 58 -50 86 -17 27 -41 70 -55 95 -28 50 -283 489 -393 679
-40 69 -85 148 -100 175 -16 28 -38 66 -50 85 -12 19 -33 55 -47 80 -25 45
-121 211 -138 240 -5 8 -53 92 -107 185 -53 94 -160 278 -236 410 -77 132
-151 260 -165 285 -24 43 -153 268 -172 300 -13 22 -110 190 -130 225 -9 17
-82 143 -162 280 -80 138 -161 279 -182 315 -20 36 -41 72 -46 80 -5 8 -32 53
-58 100 -27 47 -84 146 -127 220 -43 74 -85 149 -95 165 -29 51 -319 553 -411
711 -48 83 -96 166 -107 185 -53 94 -256 445 -262 454 -4 6 -19 30 -32 55 -30
54 -430 746 -468 810 -5 8 -41 71 -80 140 -39 69 -75 132 -80 140 -5 8 -44 76
-87 150 -42 74 -86 149 -98 165 l-20 31 -9729 -1 c-6474 0 -9733 -3 -9741 -10z"/>
<path d="M8296 31718 c-16 -27 -78 -134 -114 -198 -14 -25 -44 -76 -67 -115
-22 -38 -44 -77 -48 -85 -4 -8 -17 -31 -28 -50 -23 -39 -176 -303 -397 -685
-79 -137 -161 -279 -182 -315 -21 -36 -122 -211 -225 -390 -103 -179 -212
-368 -242 -420 -31 -52 -73 -124 -93 -160 -73 -125 -328 -568 -354 -615 -26
-45 -186 -323 -205 -355 -5 -8 -47 -80 -93 -159 -46 -80 -95 -165 -110 -190
-15 -25 -33 -57 -41 -71 -7 -14 -40 -70 -72 -125 -32 -55 -119 -206 -193 -335
-74 -129 -166 -289 -205 -355 -38 -66 -129 -222 -201 -348 -165 -287 -122
-212 -448 -777 -154 -267 -297 -514 -318 -550 -68 -117 -219 -378 -241 -417
-12 -21 -38 -67 -59 -103 -21 -36 -47 -81 -58 -100 -11 -19 -43 -75 -72 -125
-29 -49 -61 -106 -72 -125 -11 -19 -37 -64 -58 -100 -21 -36 -47 -81 -58 -100
-11 -19 -43 -75 -72 -125 -29 -49 -62 -108 -75 -130 -12 -22 -96 -166 -185
-320 -89 -154 -172 -298 -185 -320 -36 -64 -85 -149 -95 -165 -5 -8 -26 -44
-46 -80 -70 -122 -297 -515 -315 -545 -10 -16 -23 -38 -29 -47 -8 -14 -7 -18
2 -19 99 -5 471 0 477 7 5 5 20 29 33 54 27 48 160 279 323 560 56 96 112 193
124 215 12 22 27 49 34 60 17 28 50 83 79 135 52 92 251 437 283 490 18 30 69
118 113 195 44 77 88 154 98 172 27 46 217 374 230 398 6 11 53 92 104 180 51
88 178 309 283 490 104 182 220 382 257 445 37 63 120 207 185 320 65 113 143
248 173 300 30 52 98 169 150 260 52 91 226 392 387 670 374 646 403 698 428
740 10 19 70 123 132 230 62 107 122 211 133 230 11 19 51 90 90 157 39 67
113 196 165 285 52 90 145 251 207 358 62 107 134 231 159 275 25 44 51 89 58
100 7 11 16 27 20 35 4 8 32 58 63 110 31 52 59 102 63 110 4 8 16 30 27 48
11 18 64 108 117 200 53 92 161 280 240 417 80 138 174 301 210 363 l65 112
8341 0 8342 0 154 -268 c85 -147 225 -389 312 -538 86 -150 169 -294 184 -320
25 -44 167 -291 417 -721 48 -83 96 -167 106 -185 11 -18 61 -105 112 -193 98
-169 119 -205 149 -258 94 -167 117 -207 136 -237 19 -30 140 -239 202 -350
11 -19 31 -53 44 -76 13 -23 80 -139 149 -258 69 -119 132 -229 141 -244 24
-40 194 -336 342 -592 71 -124 205 -355 297 -515 92 -159 177 -306 188 -325
22 -39 108 -186 122 -210 29 -48 137 -237 143 -250 4 -8 20 -36 35 -61 23 -40
399 -689 422 -729 4 -8 27 -46 49 -83 23 -38 41 -71 41 -74 0 -3 14 -29 32
-57 17 -28 39 -66 50 -83 10 -18 26 -48 36 -65 11 -18 78 -136 151 -261 111
-191 258 -445 331 -572 9 -16 61 -106 115 -200 54 -93 138 -239 187 -323 49
-84 100 -174 115 -200 14 -26 38 -67 53 -92 16 -25 41 -68 57 -96 15 -28 59
-104 97 -170 l69 -119 236 1 c217 1 236 2 233 18 -2 9 -28 58 -58 108 -30 50
-54 92 -54 93 0 3 -79 141 -100 175 -19 32 -104 177 -133 230 -17 30 -66 115
-109 189 -43 73 -78 135 -78 137 0 2 -25 44 -55 94 -30 50 -55 93 -55 96 0 2
-11 21 -24 42 -12 20 -76 129 -141 242 -65 113 -200 347 -300 520 -101 173
-192 332 -204 353 -11 20 -30 53 -41 73 -26 45 -189 327 -240 414 -21 36 -121
209 -223 385 -101 176 -276 480 -389 675 -113 195 -215 371 -226 390 -10 19
-43 75 -71 123 -28 49 -51 93 -51 98 0 5 -4 9 -10 9 -5 0 -10 4 -10 10 0 5
-22 47 -49 92 -57 98 -417 721 -576 998 -61 107 -145 251 -185 320 -40 69 -82
141 -93 160 -34 61 -381 662 -710 1230 -110 190 -213 370 -230 400 -17 30 -48
83 -69 118 -21 34 -38 64 -38 66 0 3 -140 248 -170 296 -16 27 -260 449 -416
720 l-153 265 -8585 3 -8586 2 -14 -22z"/>
<path d="M6815 21595 c-97 -37 -179 -89 -360 -229 -215 -167 -319 -229 -693
-416 -383 -191 -455 -231 -725 -400 -404 -253 -365 -231 -897 -499 -570 -287
-794 -386 -1235 -545 -165 -60 -760 -283 -800 -301 -85 -36 -394 -147 -490
-175 -86 -25 -768 -288 -920 -355 -16 -7 -133 -54 -260 -105 -126 -51 -236
-97 -242 -102 -19 -15 -16 -52 5 -71 17 -16 352 -17 4610 -17 4562 0 4592 0
4592 -20 0 -38 104 -200 155 -242 64 -54 216 -113 335 -133 19 -3 46 -7 60
-10 14 -2 57 -7 95 -10 108 -7 218 -17 235 -20 8 -2 47 -6 85 -10 39 -4 81 -8
95 -11 14 -2 50 -6 80 -9 30 -3 78 -10 105 -15 28 -5 77 -12 110 -15 33 -4 71
-9 85 -12 14 -3 155 -6 313 -8 158 -2 309 -6 335 -10 92 -11 168 -27 222 -45
44 -14 145 -39 265 -66 31 -7 75 -15 110 -19 22 -3 49 -8 60 -10 11 -2 30 -4
43 -4 43 -2 21 -20 -60 -51 -286 -111 -366 -187 -348 -330 21 -161 212 -231
700 -255 217 -11 307 -26 465 -80 145 -49 244 -70 480 -100 17 -2 40 -4 53 -4
26 -1 26 11 2 -166 -9 -68 -7 -430 3 -470 3 -11 8 -51 12 -90 4 -38 9 -79 11
-90 4 -18 4 -176 1 -435 -1 -102 10 -310 18 -332 2 -7 6 -29 9 -48 6 -53 26
-173 30 -179 2 -3 7 -30 11 -60 4 -30 9 -63 12 -75 3 -12 6 -124 8 -251 4
-212 10 -323 21 -378 2 -12 7 -35 10 -52 9 -52 43 -178 59 -220 9 -22 18 -49
22 -60 3 -11 41 -87 83 -170 91 -176 157 -337 200 -490 54 -188 129 -303 265
-405 150 -112 269 -152 500 -165 125 -8 161 -13 265 -36 25 -6 52 -12 60 -14
47 -9 110 -30 187 -60 188 -72 330 -95 558 -91 164 4 194 7 306 30 60 13 214
14 285 2 16 -3 49 -8 74 -11 119 -17 253 -54 465 -128 208 -73 406 -102 695
-102 248 0 350 12 512 61 114 34 193 45 333 48 183 4 277 -9 394 -55 84 -32
287 -84 370 -94 30 -4 63 -8 73 -10 137 -27 785 -27 950 0 21 3 67 8 193 20
160 16 487 27 860 29 198 2 287 6 302 14 26 14 58 79 72 143 10 49 10 55 11
159 1 117 -42 247 -87 264 -41 16 -870 2 -1133 -19 -159 -13 -282 -25 -312
-31 -119 -22 -650 -21 -767 1 -9 1 -38 6 -65 9 -94 13 -186 36 -246 61 -57 24
-145 51 -200 61 -14 2 -47 9 -75 14 -121 23 -311 29 -485 15 -52 -4 -97 -8
-100 -10 -3 -2 -29 -6 -58 -10 -30 -4 -107 -22 -173 -40 -131 -37 -216 -49
-354 -49 -89 0 -240 10 -281 18 -12 2 -39 7 -60 10 -57 9 -167 37 -179 46 -10
7 -255 89 -284 95 -9 1 -34 8 -56 13 -22 6 -51 13 -65 16 -23 4 -99 19 -110
21 -3 1 -27 5 -55 10 -27 4 -59 9 -70 11 -76 15 -312 20 -395 9 -78 -10 -115
-17 -122 -21 -12 -8 -123 -18 -193 -18 -129 0 -231 19 -317 58 -41 18 -156 57
-185 62 -12 2 -33 8 -45 13 -13 5 -26 9 -31 9 -4 0 -20 3 -35 6 -161 35 -273
51 -432 61 -112 7 -168 43 -189 122 -46 172 -137 399 -233 583 -123 235 -139
301 -143 595 -4 287 -8 337 -50 575 -38 214 -38 217 -41 585 -1 193 -4 360 -7
372 -3 12 -9 53 -12 90 -4 37 -9 77 -11 88 -2 11 -4 76 -5 145 -1 112 3 172
17 250 2 14 7 58 11 97 3 40 11 77 17 81 8 7 376 131 406 137 3 1 25 7 50 14
25 7 52 15 60 16 8 2 15 4 15 5 0 1 7 3 15 5 8 1 78 16 155 33 77 17 160 34
185 37 25 3 59 9 75 11 17 3 131 7 255 9 124 2 241 6 260 8 19 3 60 8 90 11
71 8 97 13 205 36 166 35 314 55 540 75 123 11 253 54 312 104 83 70 84 184 2
272 -63 67 -117 96 -327 175 -58 22 -70 30 -60 40 25 23 325 81 511 99 37 3
76 8 85 10 9 1 42 6 72 10 86 10 126 17 220 35 30 6 71 13 90 16 19 3 60 12
90 19 57 15 73 18 153 35 27 5 121 33 210 61 89 28 176 55 192 59 103 27 164
60 184 98 l12 22 4069 0 c4057 0 4070 0 4090 20 43 43 23 66 -120 134 -69 32
-251 99 -455 166 -775 255 -1049 345 -1205 397 -265 87 -438 139 -540 161 -52
11 -136 30 -186 41 -147 32 -234 72 -514 234 -146 84 -272 156 -280 160 -8 4
-28 15 -45 25 -16 10 -64 37 -105 59 -41 22 -165 89 -275 148 -266 144 -287
155 -380 205 -44 23 -107 57 -140 75 -33 18 -96 52 -140 75 -86 46 -164 89
-234 127 -24 13 -91 49 -150 80 -175 92 -307 174 -701 436 -446 297 -506 335
-715 442 -192 100 -352 164 -504 204 -164 43 -231 48 -308 22 -100 -34 -162
-74 -415 -268 -182 -140 -255 -183 -628 -370 -382 -191 -444 -224 -575 -305
-49 -31 -131 -82 -181 -112 l-91 -57 -119 67 c-66 36 -131 75 -146 85 -14 11
-29 19 -32 19 -4 0 -19 9 -34 19 -15 11 -196 131 -402 268 -472 314 -511 337
-750 456 -247 123 -408 179 -608 210 -132 20 -215 -18 -486 -222 -277 -210
-306 -228 -691 -419 -385 -192 -473 -240 -712 -390 l-163 -101 -107 58 c-145
78 -214 122 -658 416 -390 259 -538 350 -730 447 -293 148 -632 243 -741 208
-72 -23 -168 -73 -219 -113 -5 -4 -62 -47 -125 -94 -63 -48 -145 -110 -182
-138 -103 -78 -195 -129 -553 -308 -181 -90 -369 -187 -416 -214 -48 -28 -93
-53 -100 -56 -8 -4 -91 -56 -186 -116 l-172 -109 -87 49 c-48 27 -89 49 -90
49 -17 0 -774 491 -1036 671 -15 11 -29 19 -31 19 -2 0 -44 23 -93 51 -394
227 -804 358 -949 304z m5779 -3322 c31 -121 57 -173 114 -225 95 -86 325
-188 478 -212 159 -26 435 -111 549 -171 45 -24 107 -51 139 -61 l58 -18 -5
-46 c-6 -52 -29 -120 -83 -244 l-39 -88 -42 -3 c-44 -3 -102 -27 -142 -57 -13
-10 -26 -16 -30 -14 -3 2 -46 7 -96 10 -124 9 -296 36 -355 56 -120 39 -249
80 -270 83 -177 33 -205 36 -345 42 -112 5 -143 7 -270 21 -59 7 -147 23 -152
28 -2 2 25 14 59 26 109 40 228 98 280 136 73 54 100 103 105 189 7 120 -33
166 -174 203 -77 21 -102 25 -198 37 -27 4 -57 8 -65 10 -8 2 -30 7 -47 10
-51 8 -232 53 -282 69 -25 9 -57 17 -71 20 -14 3 -35 7 -46 10 -110 24 -232
33 -434 31 -217 -2 -397 10 -565 38 -58 10 -119 17 -255 31 -36 4 -81 9 -100
11 -63 7 -134 14 -210 20 -232 18 -368 61 -408 129 l-21 36 1448 0 1449 0 26
-107z m2651 72 c-38 -18 -113 -51 -166 -73 -110 -46 -141 -64 -194 -110 -99
-88 -150 -224 -125 -336 18 -80 -42 -149 -178 -206 -87 -36 -229 -110 -342
-178 -41 -24 -78 -47 -82 -49 -4 -2 0 20 9 49 23 75 22 222 -1 268 -37 71 -70
94 -178 124 -31 9 -88 32 -125 52 -135 71 -336 136 -563 184 -141 30 -251 65
-331 107 -102 53 -106 58 -135 176 l-6 27 1243 -1 1244 0 -70 -34z m2190 25
c-42 -10 -224 -48 -260 -54 -16 -3 -61 -10 -100 -16 -38 -6 -81 -13 -95 -15
-14 -2 -47 -7 -75 -10 -27 -3 -66 -8 -85 -11 -19 -2 -57 -6 -85 -9 -181 -16
-437 -75 -518 -118 -63 -33 -130 -101 -154 -157 -20 -46 -20 -127 0 -166 35
-67 151 -143 297 -194 76 -27 94 -40 60 -41 -14 0 -32 -2 -40 -3 -8 -2 -53 -6
-100 -10 -47 -3 -96 -8 -110 -10 -14 -3 -43 -7 -65 -10 -75 -9 -173 -26 -270
-46 -209 -42 -287 -50 -585 -55 -102 -2 -207 -6 -235 -10 -43 -6 -290 -54
-365 -70 -17 -4 -13 -1 10 10 96 44 129 63 180 101 30 23 70 59 87 80 71 85
108 211 86 294 -5 19 -7 45 -4 57 10 40 67 88 137 117 107 44 377 168 394 180
8 6 29 18 45 27 104 56 177 103 191 124 l16 25 837 -1 c460 -1 823 -4 806 -9z"/>
<path d="M28462 21533 c-51 -33 -71 -82 -56 -141 16 -64 80 -52 68 14 -5 27
-1 38 20 58 14 15 34 26 44 26 23 0 72 -36 72 -53 0 -7 11 -35 24 -63 l24 -52
-37 -36 c-59 -57 -82 -110 -88 -197 l-6 -76 -114 49 c-249 105 -385 100 -500
-21 -179 -187 -43 -500 219 -503 49 -1 90 8 179 38 l115 40 -23 -41 c-51 -93
-63 -221 -28 -320 50 -142 179 -355 355 -584 87 -114 110 -132 136 -110 49 40
319 422 370 522 48 94 94 220 97 268 5 66 -9 141 -39 202 -13 28 -22 52 -19
55 2 2 35 -8 72 -22 150 -57 234 -63 328 -21 114 50 178 148 178 275 0 111
-45 192 -143 254 -118 74 -229 60 -520 -67 l-35 -15 -1 73 c-1 59 -7 82 -30
125 -15 28 -43 64 -61 80 -36 32 -36 30 8 127 34 74 73 92 120 55 17 -15 22
-28 21 -58 -2 -47 9 -67 34 -62 30 5 48 48 40 93 -16 83 -105 132 -189 104
-45 -15 -83 -64 -113 -148 l-17 -47 -46 11 c-50 13 -134 11 -174 -4 -22 -9
-27 -7 -33 12 -51 165 -149 226 -252 160z"/>
<path d="M30395 21479 c-76 -43 -140 -79 -142 -79 -2 0 -22 -12 -46 -27 -23
-14 -67 -40 -97 -56 -30 -16 -60 -36 -67 -44 -8 -10 -11 -96 -11 -290 0 -193
-3 -278 -11 -286 -7 -7 -118 -73 -249 -147 l-237 -136 0 -288 0 -289 239 -138
c131 -75 243 -142 248 -147 7 -7 11 -114 12 -293 l1 -282 130 -75 c72 -41 183
-105 248 -143 65 -38 121 -68 125 -66 4 2 115 65 248 140 132 76 246 137 253
137 11 0 120 -61 181 -100 8 -6 24 -14 35 -19 11 -5 78 -43 148 -85 71 -42
130 -76 131 -76 2 0 48 25 102 57 55 31 133 75 174 98 41 23 109 63 151 87
l77 46 68 -40 c38 -22 89 -51 114 -65 25 -14 107 -61 182 -105 l137 -79 250
143 251 143 0 291 0 290 -132 75 c-73 40 -142 79 -153 86 -11 7 -27 16 -35 20
-8 4 -52 29 -97 56 l-83 48 0 283 0 283 250 144 250 144 0 290 0 291 -112 62
c-62 34 -135 75 -163 91 -27 16 -90 52 -139 80 l-90 50 -30 -18 c-140 -83
-458 -261 -468 -261 -7 0 -39 16 -71 35 -32 19 -60 35 -63 35 -3 0 -42 22 -87
48 -45 27 -89 51 -97 55 -8 4 -28 15 -45 26 -16 10 -55 32 -85 49 l-55 31
-140 -81 c-77 -44 -165 -94 -195 -111 -30 -17 -79 -45 -109 -62 l-54 -32 -56
32 c-41 24 -322 183 -442 251 -3 1 -68 -33 -144 -77z"/>
<path d="M27317 18571 c-2 -3 -3 -69 -3 -146 l1 -139 375 -3 c206 -1 778 -5
1270 -8 1639 -11 2168 -14 3080 -20 498 -4 1043 -7 1213 -8 270 -2 307 -1 308
13 0 8 1 74 2 145 l2 130 -115 1 c-115 2 -1380 11 -2570 19 -349 2 -1022 7
-1495 10 -1598 11 -2065 13 -2068 6z"/>
<path d="M250 16795 c0 -41 3 -75 8 -76 4 0 16 -2 27 -4 11 -2 38 -6 60 -9
111 -12 252 -65 295 -110 12 -14 31 -48 40 -76 16 -47 17 -141 16 -1243 l-1
-1192 -23 -46 c-43 -87 -117 -118 -322 -134 -124 -10 -117 -5 -119 -84 -1 -48
2 -70 11 -73 21 -7 1529 -2 1578 6 25 3 79 11 120 17 321 44 663 190 890 380
344 286 511 672 504 1164 -2 165 -7 214 -34 355 -95 480 -397 847 -861 1046
-80 34 -277 98 -336 109 -16 2 -53 9 -83 14 -30 6 -71 13 -90 17 -19 4 -405 9
-857 11 l-823 4 0 -76z m1465 -109 c33 -4 80 -12 105 -17 25 -6 54 -12 64 -15
141 -28 365 -151 486 -266 50 -47 141 -154 180 -212 81 -120 185 -386 205
-526 4 -24 8 -47 10 -50 10 -16 20 -186 19 -325 -1 -325 -44 -550 -149 -771
-103 -219 -260 -381 -463 -475 -37 -17 -74 -33 -82 -35 -8 -2 -45 -12 -83 -23
-113 -33 -201 -44 -352 -44 -242 1 -371 57 -439 191 -48 94 -47 84 -44 1362
l3 1205 120 5 c158 7 345 5 420 -4z"/>
<path d="M3359 16853 c-3 -58 -1 -125 5 -130 3 -4 32 -10 64 -14 281 -38 403
-95 439 -204 15 -45 11 -2402 -4 -2436 -34 -79 -117 -130 -234 -143 -31 -4
-66 -9 -78 -11 -12 -2 -58 -7 -104 -11 -45 -3 -84 -8 -87 -9 -4 -3 -5 -97 -1
-140 1 -10 2800 -15 2802 -5 3 14 7 67 13 180 4 69 9 139 11 155 2 17 6 77 10
135 3 58 7 125 9 150 2 25 7 97 11 160 4 63 7 119 8 125 1 6 -33 11 -85 13
-63 2 -88 -1 -88 -9 0 -20 -115 -247 -176 -349 -71 -118 -156 -234 -205 -280
-88 -81 -236 -104 -674 -103 -368 0 -455 14 -531 87 -77 75 -77 72 -79 708
l-3 557 252 -4 c138 -1 262 -5 275 -9 163 -39 244 -99 301 -224 36 -77 77
-210 86 -279 l6 -51 89 0 89 0 0 638 c0 579 -2 639 -16 642 -9 2 -49 2 -89 0
l-74 -4 -6 -41 c-12 -70 -53 -202 -82 -263 -33 -70 -108 -145 -179 -180 -82
-40 -175 -51 -424 -50 l-225 1 -1 624 -1 623 416 -5 c468 -6 487 -7 571 -45
80 -35 205 -156 291 -280 46 -65 129 -227 129 -249 0 -7 139 -10 171 -4 4 0 7
170 7 376 l0 375 -1304 0 c-1235 0 -1304 -1 -1305 -17z"/>
<path d="M7263 16795 l-1 -75 37 -6 c20 -3 70 -14 111 -24 163 -40 252 -88
286 -156 18 -38 19 -79 22 -1214 2 -830 0 -1190 -8 -1226 -19 -90 -90 -151
-195 -169 -16 -2 -54 -7 -84 -11 -30 -3 -62 -8 -70 -9 -9 -2 -35 -4 -57 -4
l-42 -1 2 -77 1 -78 1268 0 c839 0 1267 3 1268 10 0 5 2 26 4 45 1 19 6 85 10
145 4 61 8 128 10 150 2 22 7 83 10 135 4 52 8 115 10 140 2 25 6 88 10 140 3
52 8 112 11 133 l5 37 -81 0 c-53 0 -80 -4 -80 -11 0 -7 -23 -59 -51 -118 -98
-201 -280 -476 -358 -537 -14 -12 -57 -31 -95 -43 -133 -41 -270 -55 -536 -53
-172 1 -236 6 -317 25 -67 16 -115 66 -140 144 -17 55 -18 128 -18 1243 l0
1185 23 45 c25 49 69 84 123 101 52 15 169 40 214 45 22 3 49 7 60 9 11 2 25
4 30 4 6 1 10 34 10 76 l1 75 -696 0 -697 0 0 -75z"/>
<path d="M11480 16848 c-5 -13 -43 -108 -85 -213 -41 -104 -80 -201 -87 -215
-6 -14 -14 -34 -19 -45 -4 -11 -89 -225 -189 -475 -99 -250 -185 -464 -190
-475 -5 -11 -30 -72 -55 -135 -25 -63 -50 -124 -55 -135 -5 -11 -43 -105 -85
-210 -41 -104 -80 -199 -85 -210 -5 -11 -48 -114 -95 -229 -104 -254 -109
-265 -158 -343 -89 -144 -240 -233 -437 -259 -25 -3 -49 -7 -55 -8 -19 -2 -25
-57 -16 -141 1 -7 220 -10 644 -9 353 1 645 2 648 3 4 1 4 118 0 142 -1 3 -7
6 -13 6 -29 1 -145 13 -168 18 -14 2 -50 10 -80 16 -108 21 -203 66 -234 111
-9 12 -16 37 -16 56 0 86 69 320 170 581 l51 131 559 0 558 0 13 -32 c6 -18
13 -35 13 -38 2 -8 184 -467 223 -560 42 -103 50 -161 26 -186 -39 -39 -161
-71 -343 -90 -88 -9 -88 -9 -96 -17 -11 -11 -10 -136 1 -140 9 -3 1412 -1
1426 2 3 0 5 29 3 64 -3 85 -2 84 -16 84 -77 1 -201 34 -280 74 -65 33 -158
121 -186 176 -18 35 -110 263 -279 693 -199 505 -554 1403 -684 1730 l-118
295 -101 3 c-96 3 -100 2 -110 -20z m46 -890 c46 -117 89 -224 96 -238 18 -42
26 -62 58 -145 17 -44 35 -89 40 -100 36 -78 180 -450 178 -457 -3 -8 -392
-12 -885 -8 l-62 0 25 58 c13 31 96 239 184 462 88 223 164 414 169 425 5 11
29 70 53 132 28 74 46 107 51 98 4 -8 46 -110 93 -227z"/>
<path d="M16027 16864 c-1 -2 -25 -6 -52 -9 -45 -6 -154 -27 -211 -40 -42 -10
-160 -47 -194 -62 -340 -145 -560 -318 -756 -598 -92 -131 -201 -399 -229
-560 -2 -16 -7 -41 -10 -55 -9 -41 -19 -179 -19 -280 0 -217 39 -431 112 -615
77 -193 165 -327 308 -471 143 -143 264 -220 499 -319 73 -30 220 -70 300 -81
28 -3 52 -7 55 -9 11 -7 172 -18 278 -19 119 -2 286 12 341 28 9 3 30 8 46 11
123 24 304 102 422 182 153 103 272 223 377 383 56 84 126 204 126 215 0 6
-108 60 -137 69 -19 6 -26 0 -49 -46 -75 -150 -225 -331 -334 -405 -239 -162
-627 -214 -930 -126 -182 53 -329 141 -470 282 -201 202 -323 467 -365 796
-12 91 -6 372 10 495 71 539 311 902 678 1025 254 85 584 34 803 -125 181
-131 345 -366 453 -650 61 -160 49 -146 127 -144 38 1 74 2 81 3 9 1 11 59 8
229 -3 125 -7 372 -10 550 -2 178 -7 327 -10 332 -3 5 -48 8 -100 7 l-94 -2
-67 -105 c-36 -58 -68 -107 -69 -108 -2 -2 -24 10 -50 28 -111 76 -274 141
-445 176 -93 19 -144 23 -267 22 -84 -1 -154 -2 -156 -4z"/>
<path d="M17420 16795 c0 -71 1 -75 23 -76 72 -2 237 -44 297 -74 26 -13 60
-39 75 -57 60 -71 57 -16 57 -1067 1 -886 2 -973 18 -1053 90 -441 542 -719
1170 -722 217 -1 383 29 565 101 350 138 558 382 611 713 4 25 8 407 9 850 1
443 5 824 9 848 3 23 8 59 11 80 16 116 49 202 97 250 37 37 144 84 223 98 17
2 36 7 43 9 70 25 255 25 342 0 8 -2 26 -6 40 -9 173 -34 259 -79 293 -154
l21 -47 1 -1170 c0 -674 -3 -1189 -8 -1215 -12 -57 -56 -113 -110 -139 -44
-21 -178 -46 -312 -57 -44 -3 -82 -8 -85 -9 -5 -3 -6 -105 -1 -140 1 -7 475
-10 1401 -10 l1400 0 1 25 c1 14 2 41 4 60 2 19 6 82 9 140 4 58 9 125 11 150
2 25 6 88 10 140 10 160 14 221 21 318 l6 92 -85 0 c-80 0 -86 -1 -92 -22 -9
-28 -104 -220 -142 -286 -60 -105 -174 -270 -215 -311 -98 -100 -241 -126
-683 -125 -261 1 -323 4 -404 21 -111 23 -161 65 -199 165 -15 38 -17 114 -20
605 l-3 563 258 -4 c142 -2 265 -6 273 -10 8 -3 27 -7 41 -10 47 -8 137 -57
180 -100 24 -23 56 -72 75 -112 36 -76 81 -223 91 -291 l6 -42 86 2 86 2 1
638 c2 585 1 637 -15 638 -19 1 -118 1 -143 0 -12 -1 -20 -16 -28 -58 -18 -92
-59 -214 -91 -272 -45 -79 -131 -150 -212 -175 -9 -3 -18 -6 -20 -7 -26 -15
-176 -26 -359 -26 l-228 -1 0 625 0 625 423 -5 c232 -3 438 -8 457 -12 130
-22 252 -113 378 -284 59 -79 142 -233 142 -263 0 -10 6 -19 13 -19 38 -5 167
-4 168 1 1 3 2 173 3 378 l1 372 -1997 0 c-1896 0 -1998 -1 -1999 -17 -2 -30
0 -125 3 -128 2 -2 25 -6 52 -9 191 -26 379 -90 433 -148 49 -52 91 -180 110
-334 4 -32 7 -405 7 -829 l1 -770 -23 -85 c-51 -190 -159 -343 -305 -434 -154
-95 -308 -132 -554 -130 -460 4 -725 216 -779 624 -11 81 -11 1857 -1 1912 20
101 98 151 282 178 44 6 89 13 100 15 11 2 32 4 46 4 26 1 27 2 27 76 l0 75
-699 0 -699 0 0 -75z"/>
<path d="M23670 16796 l0 -73 63 -13 c156 -32 365 -129 442 -205 58 -57 100
-138 118 -229 10 -46 12 -269 11 -931 -1 -989 -3 -1032 -55 -1169 -35 -94 -84
-136 -204 -174 -108 -34 -264 -72 -295 -72 -20 0 -22 -12 -22 -120 0 -11 0
-23 1 -28 1 -4 321 -7 711 -7 l710 0 0 76 0 76 -52 8 c-29 5 -55 9 -58 9 -3 1
-39 10 -80 20 -122 29 -242 76 -285 111 -67 54 -115 164 -131 300 -4 28 -9 55
-12 60 -4 6 -7 421 -8 923 -2 835 0 911 14 890 9 -13 19 -25 22 -28 5 -4 705
-874 837 -1040 6 -8 33 -42 60 -75 42 -51 800 -995 1020 -1270 l72 -90 93 1
c51 1 95 2 98 3 3 0 5 540 6 1199 0 1321 1 1369 41 1502 34 111 84 159 212
199 94 30 255 67 308 70 7 1 11 26 11 76 l-1 75 -707 0 -706 0 0 -75 1 -75 45
-6 c118 -17 325 -76 399 -114 83 -42 144 -167 167 -341 8 -62 13 -1729 6
-1729 -4 1 -47 53 -97 116 -49 64 -97 123 -105 133 -9 9 -124 151 -255 316
-132 165 -244 305 -250 311 -13 15 -10 12 -385 479 -172 215 -392 489 -489
609 -97 120 -189 235 -204 255 -15 20 -44 55 -64 79 l-35 42 -484 0 -484 0 0
-74z"/>
<path d="M28818 16865 c-2 -2 -31 -6 -64 -9 -471 -47 -930 -326 -1186 -721
-231 -356 -309 -816 -213 -1260 100 -466 363 -808 770 -1001 163 -77 316 -120
535 -150 71 -10 358 -10 435 0 161 20 347 79 483 152 199 108 394 300 524 519
37 63 78 141 78 149 0 7 -151 78 -156 73 -2 -1 -18 -30 -35 -63 -121 -228
-281 -391 -469 -476 -228 -103 -574 -121 -819 -42 -343 111 -612 393 -735 766
-62 192 -76 281 -77 508 0 165 9 279 37 440 3 20 35 149 47 195 32 115 113
284 181 379 183 252 427 378 720 370 351 -10 623 -184 824 -527 60 -102 82
-149 148 -312 l52 -130 79 0 78 0 -2 210 c-3 417 -13 906 -18 914 -2 5 -48 8
-100 8 l-95 0 -66 -109 c-37 -59 -70 -108 -73 -108 -4 0 -23 12 -42 26 -53 40
-178 100 -275 133 -148 50 -271 70 -426 69 -75 0 -138 -2 -140 -3z"/>
<path d="M31785 16823 c-10 -26 -26 -66 -35 -88 -10 -22 -66 -161 -125 -310
-59 -148 -111 -279 -116 -290 -5 -11 -61 -150 -124 -310 -64 -159 -123 -304
-131 -322 -8 -17 -14 -34 -14 -38 0 -4 -7 -21 -14 -38 -8 -18 -43 -102 -76
-187 -34 -85 -68 -168 -76 -185 -7 -16 -48 -115 -90 -220 -80 -200 -215 -526
-242 -585 -62 -137 -175 -250 -298 -298 -58 -23 -173 -50 -227 -54 l-38 -2 3
-76 3 -75 648 0 648 0 -3 74 c-2 57 -7 75 -18 76 -8 2 -46 6 -85 9 -113 12
-245 44 -311 76 -95 46 -111 83 -87 205 12 65 72 274 92 320 5 11 19 47 31 80
12 33 36 96 54 140 l31 80 559 0 558 0 140 -350 c114 -286 140 -360 141 -405
l2 -55 -45 -22 c-53 -27 -195 -59 -300 -69 -41 -4 -82 -8 -90 -9 -11 -1 -16
-19 -18 -70 -2 -38 1 -71 7 -74 5 -3 328 -6 718 -6 l708 0 0 75 c0 43 -4 75
-10 75 -11 1 -83 12 -129 21 -141 25 -291 128 -342 235 -34 70 -234 563 -241
594 -2 11 -229 588 -243 620 -5 11 -77 193 -160 405 -83 212 -155 394 -160
405 -5 11 -27 65 -49 120 -21 55 -81 206 -133 335 l-94 235 -100 3 -101 3 -18
-48z m-28 -660 c43 -97 461 -1149 458 -1152 -5 -4 -936 -3 -941 2 -2 2 63 172
145 378 82 206 186 470 232 586 46 117 86 213 89 213 3 0 11 -12 17 -27z"/>
<path d="M21945 13212 c-10 -26 -5 -42 13 -42 9 0 36 -9 60 -20 32 -14 42 -25
42 -42 0 -13 -23 -108 -51 -213 -28 -104 -52 -196 -54 -205 -14 -67 -109 -396
-118 -411 -13 -21 -50 -35 -112 -43 -22 -3 -41 -5 -41 -6 -1 0 -4 -10 -6 -23
l-5 -24 270 1 270 1 8 22 c7 20 4 24 -19 29 -86 19 -101 26 -107 45 -4 12 13
96 42 205 l48 184 31 0 c42 0 94 -37 121 -85 23 -43 53 -204 58 -315 2 -36 4
-70 4 -76 1 -8 117 -11 415 -11 l414 0 5 23 c4 20 -1 25 -32 34 -20 5 -41 10
-47 10 -6 0 -19 9 -29 20 -20 22 -31 -29 119 555 84 327 84 327 178 340 53 7
68 17 68 45 0 13 -34 15 -257 15 l-257 0 -7 -27 c-6 -25 -4 -27 32 -33 21 -4
49 -15 62 -26 29 -22 28 -25 -27 -239 -19 -74 -60 -234 -90 -355 -31 -121 -63
-234 -72 -252 -22 -43 -61 -57 -131 -49 -86 10 -95 21 -117 152 -22 132 -25
143 -46 185 -25 47 -64 85 -112 106 -44 19 -42 28 9 38 60 10 172 72 214 117
89 94 87 253 -3 321 -73 55 -107 60 -435 61 -247 1 -303 -1 -308 -12z m485
-77 c40 -20 61 -59 65 -119 9 -120 -50 -219 -148 -250 -31 -10 -75 -19 -99
-21 l-44 -4 53 197 c29 108 55 203 58 211 6 16 71 9 115 -14z"/>
<path d="M23940 13219 c-221 -31 -424 -203 -500 -425 -18 -53 -24 -95 -26
-179 -4 -145 21 -218 105 -305 93 -97 183 -130 342 -125 334 11 589 282 589
625 0 154 -56 263 -177 346 -85 58 -204 81 -333 63z m184 -86 c89 -66 106
-273 40 -501 -53 -182 -134 -310 -225 -356 -119 -59 -230 -17 -265 99 -14 49
-20 189 -9 250 25 141 61 252 112 343 74 133 160 194 264 187 36 -2 68 -10 83
-22z"/>
<path d="M24847 13202 c-5 -25 -2 -27 57 -37 26 -4 51 -18 74 -41 33 -33 34
-37 29 -92 -3 -31 -7 -66 -10 -77 -136 -549 -164 -638 -211 -669 -26 -16 -126
-48 -126 -39 0 3 -7 0 -15 -7 -8 -7 -15 -20 -15 -30 0 -16 17 -18 225 -18 124
0 225 4 225 8 0 5 3 15 6 23 4 12 -9 20 -55 32 -74 21 -93 40 -93 97 0 52 5
83 38 213 14 55 27 107 29 115 2 8 11 44 20 80 9 36 19 74 21 84 15 76 38 156
44 149 3 -4 30 -69 60 -143 29 -74 61 -153 70 -175 10 -22 54 -131 99 -242 44
-110 86 -212 92 -225 l11 -25 294 0 c162 0 294 4 294 8 0 4 2 14 5 21 4 10 -7
19 -37 28 -58 19 -87 41 -87 65 0 11 22 52 50 90 27 39 66 93 85 122 l36 52
144 -1 144 -1 0 -136 c-1 -167 -9 -181 -109 -195 -50 -7 -47 -4 -55 -32 l-6
-21 480 0 c470 0 480 0 486 20 7 23 -7 34 -59 42 -37 7 -75 44 -63 63 3 5 7
19 10 33 7 35 32 129 64 244 l27 100 188 3 c176 2 188 1 184 -15 -3 -10 -26
-99 -52 -198 -31 -118 -54 -188 -68 -202 -19 -21 -45 -30 -110 -37 -33 -4 -34
-5 -39 -31 -3 -20 3 -20 255 -21 255 -1 259 -1 267 20 7 19 2 23 -39 35 -25 7
-54 20 -64 29 -18 16 -18 20 -2 92 5 22 112 437 146 565 16 61 34 129 40 153
15 55 46 79 114 87 51 7 64 18 65 55 0 11 -515 6 -522 -5 -19 -25 -6 -41 43
-55 83 -24 84 -29 32 -226 l-45 -171 -185 0 -185 0 5 31 c4 17 8 40 11 51 75
288 74 286 113 304 12 6 44 13 70 17 56 7 53 5 58 35 l5 24 -258 0 c-165 1
-260 -3 -264 -10 -19 -26 -7 -43 36 -54 42 -10 76 -33 76 -51 0 -4 -21 -88
-46 -186 -25 -99 -47 -186 -49 -194 -2 -8 -26 -101 -54 -206 -28 -105 -51
-198 -51 -205 -1 -18 -30 -53 -57 -68 -39 -20 -111 -14 -137 12 l-23 23 1 453
c1 249 -2 460 -6 470 -5 14 -16 18 -56 17 -28 -1 -55 -8 -63 -16 -8 -8 -73
-94 -144 -190 -71 -96 -132 -177 -135 -180 -3 -3 -52 -68 -110 -145 -164 -219
-273 -358 -300 -383 -33 -30 -86 -57 -138 -71 -27 -8 -42 -17 -42 -28 0 -9 -2
-14 -5 -11 -3 3 29 142 70 309 42 167 78 311 80 320 14 68 52 193 72 236 31
68 49 79 176 107 20 5 27 13 27 29 l0 22 -221 0 c-219 0 -222 0 -230 -22 -7
-20 -3 -23 45 -37 81 -24 101 -44 101 -103 -1 -55 -136 -617 -146 -605 -3 4
-25 54 -48 112 -87 213 -174 426 -191 465 -9 22 -30 73 -45 113 -16 39 -33 73
-39 73 -6 1 -95 2 -198 3 l-187 1 -4 -23z m1499 -559 c-6 -6 -194 -9 -210 -3
-10 3 20 52 97 156 l112 151 3 -150 c1 -82 1 -152 -2 -154z"/>
<path d="M28060 13216 c-22 -22 -9 -42 34 -54 54 -14 77 -36 72 -66 -6 -32
-125 -494 -137 -531 -17 -51 -22 -177 -10 -222 31 -115 137 -165 334 -158 142
5 226 37 302 112 83 83 109 145 185 439 96 369 107 390 219 420 36 10 67 18
68 18 1 1 4 12 8 26 l6 25 -221 0 c-161 0 -220 -3 -220 -12 0 -6 -3 -18 -6
-27 -4 -10 -1 -16 10 -16 34 0 123 -48 129 -69 10 -40 -2 -114 -44 -276 -22
-88 -42 -164 -44 -170 -50 -213 -107 -310 -218 -368 -55 -29 -178 -31 -219 -3
-48 32 -62 64 -62 146 -1 91 -2 83 83 413 41 157 76 276 87 288 18 20 73 39
115 39 25 0 39 16 39 43 0 15 -496 17 -510 3z"/>
<path d="M29400 12965 c-353 -470 -479 -633 -517 -664 -29 -24 -112 -62 -143
-66 -15 -1 -30 -18 -30 -34 0 -17 15 -18 211 -17 208 1 212 1 220 23 7 20 3
23 -46 38 -57 16 -88 46 -77 74 12 34 164 240 180 245 9 2 76 4 149 4 l132 0
-3 -139 c-2 -163 -7 -172 -96 -189 -51 -10 -70 -22 -70 -46 0 -12 1649 -17
1651 -5 0 3 2 14 4 23 2 13 -7 21 -38 29 -55 15 -87 37 -87 62 0 24 113 195
167 252 8 8 55 12 152 13 l141 1 0 -129 c0 -71 -4 -140 -9 -153 -10 -25 -43
-41 -111 -52 -40 -7 -36 -4 -44 -31 -6 -21 -6 -21 253 -21 l259 0 5 24 c4 21
0 24 -36 30 -23 3 -51 17 -64 29 l-23 23 0 469 0 469 -55 -2 c-30 -1 -59 -5
-64 -11 -5 -5 -125 -164 -268 -354 -397 -529 -414 -551 -477 -587 -29 -17 -39
-16 -33 5 2 9 19 64 35 121 17 58 29 108 27 112 -12 18 -48 -9 -93 -70 -69
-93 -145 -164 -190 -178 -47 -14 -207 -16 -233 -3 -26 14 -24 53 6 170 14 52
28 106 31 120 29 142 143 554 159 575 15 19 36 29 80 37 33 7 61 12 62 13 1 0
4 11 8 25 l6 25 -258 0 c-221 0 -259 -2 -265 -15 -13 -29 -8 -38 25 -44 52
-10 57 -11 78 -29 23 -20 23 -20 -26 -212 -20 -77 -38 -151 -41 -165 -3 -14
-19 -76 -35 -138 -17 -62 -32 -120 -34 -130 -21 -102 -48 -191 -63 -212 -41
-54 -180 -53 -198 3 -3 10 -6 227 -6 481 l1 462 -57 0 -57 -1 -195 -260z m77
-172 l0 -158 -109 2 c-61 1 -112 4 -115 6 -3 4 217 307 223 307 0 0 1 -71 1
-157z m1818 -151 c-6 -6 -214 -6 -220 0 -2 2 46 72 108 155 l112 151 3 -151
c1 -82 0 -152 -3 -155z"/>
<path d="M31744 13219 c-4 -7 -64 -229 -72 -266 -4 -20 0 -23 24 -23 23 0 36
10 62 49 44 66 131 151 167 166 17 7 50 13 73 14 24 0 47 3 51 5 4 3 13 1 20
-3 13 -8 13 -7 -74 -336 -20 -77 -38 -147 -40 -155 -21 -89 -98 -360 -107
-377 -12 -25 -71 -50 -132 -57 -43 -5 -61 -18 -53 -39 8 -20 586 -21 589 -1 0
8 1 19 2 26 1 6 -12 13 -29 15 -55 7 -103 23 -115 38 -12 15 -7 56 16 140 5
18 110 414 154 580 23 88 46 163 51 166 5 3 42 2 81 -3 62 -6 76 -11 95 -34
23 -29 53 -123 53 -167 0 -23 4 -27 29 -27 32 0 32 -1 77 171 17 65 18 66 44
59 47 -13 70 -30 70 -50 0 -25 -216 -784 -232 -813 -21 -40 -42 -49 -147 -62
-39 -5 -37 -4 -45 -31 l-6 -21 496 1 497 1 53 155 c30 85 54 158 54 163 0 4
-13 7 -28 7 -22 0 -36 -11 -64 -47 -54 -70 -152 -169 -186 -187 -32 -17 -112
-29 -181 -28 -131 1 -141 2 -160 21 -13 13 -18 29 -15 46 4 20 68 250 100 358
10 32 163 20 199 -16 17 -17 25 -47 28 -105 2 -24 9 -47 16 -51 34 -21 46 -1
88 152 24 84 51 182 62 218 l19 66 -28 -1 c-23 -1 -38 -14 -77 -66 -59 -80
-109 -108 -206 -114 -37 -2 -69 -1 -71 3 -3 4 4 38 15 76 31 107 44 153 69
243 19 68 27 82 44 83 126 6 249 -6 281 -27 28 -18 61 -79 71 -129 8 -45 16
-54 47 -48 18 4 25 17 39 71 10 37 26 96 36 132 l19 65 -909 0 c-501 0 -912
-3 -914 -6z"/>
<path d="M8136 12843 c-2 -2 -5223 -11 -7103 -13 l-802 0 1 -145 c0 -97 4
-145 12 -147 6 -2 367 -3 801 -2 435 1 2554 5 4710 8 3952 7 7457 14 7485 15
13 1 15 24 15 146 l0 145 -2558 -3 c-1407 -1 -2560 -3 -2561 -4z"/>
<path d="M1005 10878 c-23 -6 -95 -46 -95 -53 0 -1 43 -76 96 -166 53 -90 110
-189 127 -219 16 -30 138 -242 270 -470 319 -551 634 -1097 719 -1245 37 -66
73 -127 78 -135 5 -8 30 -51 55 -95 25 -44 56 -98 69 -120 13 -22 65 -112 116
-200 51 -88 101 -176 113 -195 11 -19 30 -53 42 -75 13 -22 46 -80 75 -130 83
-143 241 -417 264 -457 12 -20 84 -145 161 -279 77 -133 150 -260 163 -283 13
-22 41 -70 62 -106 89 -152 335 -578 358 -620 13 -25 37 -65 52 -90 15 -25 88
-151 162 -280 75 -129 145 -251 156 -270 11 -19 29 -51 40 -70 11 -19 75 -132
144 -250 69 -118 136 -235 150 -260 14 -25 58 -101 98 -170 40 -68 81 -138 90
-155 9 -16 59 -102 110 -190 51 -88 102 -176 112 -195 31 -54 535 -928 676
-1170 69 -118 136 -235 150 -260 14 -25 90 -157 170 -295 80 -137 154 -266
165 -285 10 -19 95 -165 187 -325 255 -440 391 -676 413 -715 10 -19 77 -134
147 -255 70 -121 188 -323 261 -450 72 -126 140 -243 150 -260 10 -16 23 -40
29 -52 5 -13 13 -24 17 -24 5 -1 4388 -2 9740 -3 6483 -1 9734 2 9738 9 2 5
16 28 30 50 14 22 28 46 32 54 3 8 35 64 71 125 36 61 74 127 85 146 11 19 62
109 115 200 52 91 126 219 164 285 37 66 72 127 78 135 9 15 95 164 130 225
10 17 43 75 75 130 32 55 140 242 240 415 155 269 416 721 445 770 11 19 112
194 138 240 11 19 59 103 107 185 75 128 359 622 414 718 10 18 47 82 83 143
36 61 68 117 71 125 4 8 17 30 28 49 30 50 224 385 373 645 70 121 131 227
136 235 5 8 55 95 112 194 57 98 113 194 125 215 12 20 28 47 36 61 66 120
314 546 320 548 4 2 7 8 7 13 0 4 20 43 45 85 25 41 45 78 45 80 0 3 16 30 35
60 19 30 35 57 35 59 0 3 11 22 23 43 21 33 288 494 355 612 14 25 50 88 80
140 30 52 66 115 80 140 14 25 43 73 64 108 21 34 38 65 38 67 0 3 11 22 24
43 12 20 66 111 118 202 94 163 154 268 265 458 31 53 66 115 78 137 13 22 80
139 150 260 70 121 188 326 263 455 74 129 159 276 188 325 28 50 118 205 199
345 81 140 164 284 185 320 21 36 86 148 144 250 58 102 110 192 115 200 22
34 136 236 140 245 2 6 9 17 16 25 7 8 27 42 45 75 17 33 35 65 39 70 4 6 20
31 34 57 l27 46 -47 28 -47 27 -650 -1 c-358 0 -656 -1 -663 -1 -6 -1 -54 -74
-105 -163 -52 -90 -127 -219 -167 -288 -40 -69 -76 -132 -81 -140 -6 -8 -75
-130 -156 -270 -80 -140 -228 -397 -328 -570 -101 -173 -199 -344 -220 -380
-20 -36 -41 -72 -46 -80 -14 -22 -212 -367 -242 -421 -45 -81 -53 -94 -64
-109 -6 -8 -26 -42 -44 -75 -17 -33 -35 -64 -40 -70 -4 -5 -19 -31 -33 -57
-14 -26 -66 -116 -115 -200 -153 -264 -475 -822 -489 -848 -8 -14 -22 -39 -32
-55 -17 -28 -166 -287 -381 -660 -190 -328 -289 -501 -428 -740 -79 -137 -153
-266 -164 -285 -11 -19 -44 -75 -73 -125 -29 -49 -65 -112 -80 -140 -15 -27
-51 -90 -80 -140 -54 -91 -291 -500 -327 -565 -11 -19 -62 -107 -113 -195 -80
-139 -166 -288 -225 -390 -10 -16 -41 -70 -69 -120 -28 -49 -55 -97 -61 -105
-9 -16 -130 -224 -236 -409 -74 -130 -244 -423 -273 -471 -11 -19 -24 -42 -28
-50 -3 -8 -16 -31 -28 -50 -12 -19 -75 -127 -140 -240 -65 -113 -125 -218
-135 -235 -71 -123 -322 -557 -339 -585 -11 -19 -24 -41 -28 -49 -3 -8 -35
-64 -71 -125 -36 -61 -76 -131 -90 -156 -13 -25 -28 -49 -33 -54 -5 -6 -3583
-9 -9015 -9 -8862 0 -9007 0 -9021 19 -8 10 -86 145 -175 299 -89 154 -218
377 -286 495 -69 118 -136 235 -150 259 -14 25 -38 68 -55 95 -16 28 -40 69
-52 91 -41 71 -710 1230 -726 1255 -5 8 -149 258 -320 555 -171 297 -430 747
-576 1000 -146 253 -274 474 -283 490 -35 62 -134 231 -151 260 -10 17 -24 41
-32 55 -7 14 -82 144 -166 290 -85 146 -161 279 -171 295 -141 246 -254 442
-260 450 -4 6 -19 30 -32 55 -35 64 -60 107 -98 170 -18 30 -42 71 -52 90 -30
53 -168 293 -179 310 -12 19 -133 230 -167 290 -14 25 -45 78 -69 118 -24 41
-43 75 -43 77 0 2 -28 50 -62 107 -33 56 -72 123 -86 148 -31 56 -303 526
-347 600 -18 30 -44 75 -57 100 -14 25 -58 101 -98 170 -71 122 -88 151 -131
228 -12 20 -25 42 -29 47 -4 6 -21 35 -37 65 -17 30 -62 110 -102 177 -39 67
-71 126 -71 132 0 6 -3 11 -7 11 -5 0 -13 10 -19 23 -6 12 -61 110 -124 217
-62 107 -123 214 -136 237 -48 85 -196 338 -200 342 -6 7 -1293 6 -1319 -1z"/>
<path d="M3218 10882 l-36 -3 48 -82 c26 -45 123 -212 215 -372 161 -278 182
-315 224 -387 10 -18 87 -152 171 -298 84 -146 161 -278 170 -295 10 -16 41
-70 70 -120 29 -49 64 -110 78 -135 14 -25 149 -259 300 -520 151 -261 284
-491 295 -510 11 -19 35 -62 54 -95 19 -33 38 -67 43 -75 11 -17 168 -289 208
-359 14 -25 38 -68 55 -95 16 -28 39 -67 49 -86 27 -46 269 -466 379 -657 49
-83 97 -167 107 -185 54 -95 285 -494 292 -503 4 -5 21 -35 37 -65 28 -50 64
-112 291 -505 41 -71 86 -147 99 -167 12 -21 23 -40 23 -42 0 -2 39 -71 86
-153 48 -81 94 -161 104 -178 9 -16 51 -88 92 -160 42 -71 86 -148 98 -170 12
-22 64 -112 115 -200 51 -88 102 -176 113 -195 11 -19 69 -120 130 -225 168
-291 402 -696 424 -735 11 -19 37 -64 58 -100 21 -36 47 -81 58 -100 10 -19
74 -129 141 -244 66 -115 121 -210 121 -212 0 -1 23 -39 50 -84 27 -45 50 -83
50 -85 0 -2 23 -43 51 -92 29 -48 65 -113 82 -143 16 -30 36 -62 43 -71 8 -8
14 -18 14 -21 0 -4 19 -39 43 -80 l44 -73 8585 -3 8585 -2 69 117 c81 141 206
358 359 623 62 107 126 218 142 246 17 27 41 70 55 95 14 24 51 89 83 144 82
141 354 613 377 653 10 18 24 43 32 55 32 52 130 222 131 227 0 3 8 16 16 30
37 59 79 131 79 136 0 3 8 18 19 32 10 15 30 49 45 75 31 56 202 354 381 662
118 204 412 714 453 785 11 19 101 177 202 350 100 173 193 335 207 360 14 25
29 50 33 55 4 6 19 30 32 55 14 25 85 149 158 275 73 127 141 244 150 260 137
238 683 1183 748 1295 11 19 33 58 47 85 15 28 33 57 41 66 8 8 14 18 14 21 0
4 70 126 155 273 85 146 155 268 155 269 0 2 25 45 55 95 30 51 55 93 55 95 0
3 128 225 159 276 5 8 47 80 93 160 46 79 99 172 118 205 19 33 63 110 98 170
35 61 67 117 73 125 5 8 54 94 109 190 55 96 104 182 110 190 31 49 69 124 65
128 -10 10 -466 5 -476 -5 -11 -11 -169 -282 -169 -291 0 -3 -6 -13 -14 -21
-8 -9 -26 -38 -40 -66 -15 -27 -31 -57 -36 -65 -9 -14 -124 -212 -160 -275
-27 -47 -262 -456 -470 -815 -62 -107 -124 -215 -138 -239 -14 -25 -38 -68
-55 -95 -16 -28 -40 -69 -52 -91 -13 -22 -114 -197 -225 -390 -197 -339 -300
-519 -324 -560 -101 -176 -149 -260 -208 -360 -38 -66 -83 -145 -100 -175 -17
-30 -48 -84 -70 -119 -21 -34 -38 -65 -38 -67 0 -2 -14 -27 -31 -56 -36 -59
-91 -155 -231 -398 -53 -91 -134 -232 -182 -314 -47 -82 -86 -151 -86 -152 0
-2 -16 -28 -35 -58 -19 -30 -35 -57 -35 -60 0 -2 -21 -40 -46 -83 -26 -43 -56
-94 -67 -113 -41 -73 -291 -507 -318 -553 -16 -26 -29 -50 -29 -54 0 -3 -6
-14 -14 -22 -7 -9 -27 -41 -43 -71 -31 -56 -392 -682 -488 -845 -29 -49 -147
-254 -263 -455 -115 -201 -220 -383 -233 -406 -13 -22 -61 -106 -107 -185 -46
-79 -88 -151 -93 -159 -8 -13 -61 -106 -131 -230 -11 -19 -41 -71 -67 -115
-25 -44 -50 -88 -56 -97 -5 -10 -59 -103 -119 -208 l-109 -190 -8344 2 -8345
3 -95 165 c-53 91 -107 185 -121 210 -14 25 -89 155 -167 290 -117 201 -526
909 -616 1066 -13 23 -70 122 -127 220 -57 99 -107 186 -112 194 -6 8 -50 85
-99 170 -49 85 -98 171 -110 190 -11 19 -24 41 -28 49 -6 14 -125 222 -143
251 -5 8 -41 71 -81 140 -263 454 -324 559 -341 590 -10 19 -24 44 -31 55 -25
41 -55 92 -80 137 -26 47 -174 304 -247 428 -50 85 -283 489 -314 543 -13 23
-74 129 -135 235 -61 106 -120 207 -130 225 -27 48 -224 388 -331 572 -51 88
-104 180 -118 205 -42 74 -166 290 -214 370 -24 41 -47 82 -51 90 -4 8 -17 31
-28 50 -40 66 -528 911 -564 975 -15 28 -46 82 -69 120 -49 84 -236 408 -339
588 -176 306 -190 327 -210 328 -70 3 -398 4 -429 1z"/>
</g>
</svg>
